<?xml version="1.0" encoding="UTF-8" standalone="no"?>
<!-- Created with Inkscape (http://www.inkscape.org/) -->

<svg
   xmlns:dc="http://purl.org/dc/elements/1.1/"
   xmlns:cc="http://creativecommons.org/ns#"
   xmlns:rdf="http://www.w3.org/1999/02/22-rdf-syntax-ns#"
   xmlns:svg="http://www.w3.org/2000/svg"
   xmlns="http://www.w3.org/2000/svg"
   xmlns:sodipodi="http://sodipodi.sourceforge.net/DTD/sodipodi-0.dtd"
   xmlns:inkscape="http://www.inkscape.org/namespaces/inkscape"
   width="297mm"
   height="210mm"
   viewBox="0 0 1052.3622 744.0945"
   id="svg4230"
   version="1.1"
   inkscape:version="0.91 r13725"
   sodipodi:docname="BS_donkey2.svg">
  <defs
     id="defs4232">
    <filter
       inkscape:collect="always"
       style="color-interpolation-filters:sRGB"
       id="filter4165"
       x="-0.026534608"
       width="1.0530692"
       y="-0.007753138"
       height="1.0155063">
      <feGaussianBlur
         inkscape:collect="always"
         stdDeviation="2.3935268"
         id="feGaussianBlur4167" />
    </filter>
  </defs>
  <sodipodi:namedview
     id="base"
     pagecolor="#ffffff"
     bordercolor="#666666"
     borderopacity="1.0"
     inkscape:pageopacity="0.0"
     inkscape:pageshadow="2"
     inkscape:zoom="0.48385716"
     inkscape:cx="373.60291"
     inkscape:cy="520"
     inkscape:document-units="px"
     inkscape:current-layer="layer1"
     showgrid="false"
     inkscape:window-width="1920"
     inkscape:window-height="1177"
     inkscape:window-x="-8"
     inkscape:window-y="-8"
     inkscape:window-maximized="1" />
  <metadata
     id="metadata4235">
    <rdf:RDF>
      <cc:Work
         rdf:about="">
        <dc:format>image/svg+xml</dc:format>
        <dc:type
           rdf:resource="http://purl.org/dc/dcmitype/StillImage" />
        <dc:title></dc:title>
      </cc:Work>
    </rdf:RDF>
  </metadata>
  <g
     inkscape:label="Ebene 1"
     inkscape:groupmode="layer"
     id="layer1"
     transform="translate(0,-308.26772)">
    <g
       id="g4179"
       transform="matrix(-0.373248,0,0,0.373248,634.90646,177.34679)">
      <path
         style="fill:none;fill-rule:evenodd;stroke:#fefefe;stroke-width:1px;stroke-linecap:butt;stroke-linejoin:miter;stroke-opacity:1"
         d="m 1443.859,545.25788 c 0,0 -78.7837,62.78178 -112.3958,83.24133"
         id="path4169"
         inkscape:connector-curvature="0"
         sodipodi:nodetypes="cc" />
      <path
         style="fill:#000000;fill-opacity:1;fill-rule:evenodd;stroke:#000000;stroke-width:1px;stroke-linecap:butt;stroke-linejoin:miter;stroke-opacity:1"
         d="m 1569.539,447.34437 c 0,0 -17.428,-10.86642 -31.8951,7.21743 -14.4671,18.08385 -94.5527,89.38589 -94.5527,89.38589 0,0 41.8512,-49.60142 40.3012,-66.65191 -1.5501,-17.05048 -12.4004,-26.35075 -25.8341,-27.90079 -13.4337,-1.55005 -31.0009,20.15057 -34.6177,26.86743 -3.6167,6.71686 -59.935,73.36876 -66.6519,80.08562 -6.7168,6.71686 -38.7511,40.81783 -44.9513,42.88456 -6.2001,2.06672 -36.6843,7.23354 -61.485,7.23354 -24.8007,0 -129.6871,-5.16682 -175.155,0 -45.468,5.16681 -93.51938,7.75022 -150.87102,26.86743 -57.35164,19.11721 60.45173,-23.76734 -80.08562,22.2173 -140.53735,45.98465 -267.64097,110.56983 -316.72571,136.4039 -49.08474,25.83407 -43.91792,21.18394 -59.41836,28.41748 -15.50045,7.23354 -29.96753,33.58429 -79.05226,35.13433 -49.08474,1.55005 -133.82049,8.78359 -248.52376,-3.10009 C 25.31739,840.52282 -37.201062,837.93941 -119.87009,817.27216 -202.53912,796.6049 -328.30781,769.15203 -381.526,763.46854 c -104.35672,-19.34069 -219.83289,-2.33347 -297.91007,53.28694 -55.28491,39.78447 -101.78624,70.78535 -128.65367,125.55358 -26.86744,54.76823 -38.75111,97.65284 -35.13434,148.28754 3.61677,50.6348 15.50044,248.5238 8.2669,284.6915 -7.23354,36.1677 -11.88367,85.7691 -40.30115,128.137 -28.41748,42.3679 -83.70239,101.2695 -88.35252,108.5031 -4.65013,7.2335 -8.2669,27.3841 16.5338,22.2173 24.80071,-5.1668 64.0685,-23.2507 84.73576,-51.6682 20.66725,-28.4174 59.41836,-72.3354 71.30203,-144.6708 11.88368,-72.3354 10.85031,-114.7032 13.43372,-156.0377 2.58341,-41.3346 -3.10009,-87.3192 4.65013,-139.504 7.75022,-52.1849 8.26691,-52.7015 8.26691,-52.7015 0,0 25.31739,130.2037 25.83407,214.4228 0.51668,84.219 -2.06673,149.8376 -31.00089,198.9223 -28.93416,49.0847 -57.35164,88.8692 -82.15234,105.403 -24.80071,16.5338 -49.08474,36.1677 -50.63478,55.8016 -1.55005,19.6339 -12.91704,41.8512 -21.70062,103.853 -8.78359,62.0017 -47.53469,204.6058 -57.35164,238.1901 -9.81695,33.5843 -16.53381,52.1848 -19.1172,67.1686 -2.5834,14.9838 -5.1668,27.3841 9.81693,40.8178 14.98376,13.4337 52.18483,36.6844 57.35164,52.1848 5.16682,15.5005 10.85031,37.2011 11.36699,51.1515 0.51668,13.9504 -3.10009,41.3345 -3.10009,41.3345 0,0 31.00089,10.3337 56.83496,13.9504 25.83407,3.6168 76.46885,3.1001 76.46885,3.1001 l -22.73398,-89.9026 c 0,0 1.55004,-4.6501 2.06672,-7.7502 0.51669,-3.1001 0,-14.9837 -9.30026,-27.3841 -9.30027,-12.4003 -32.55093,-29.4508 -34.61766,-49.6014 -2.06672,-20.1506 -3.10009,-80.6023 21.70062,-146.7375 24.80071,-66.1353 35.13434,-87.3192 82.15235,-169.9882 47.01801,-82.669 101.78624,-176.7051 187.03867,-273.3245 85.25244,-96.6194 120.38677,-128.137 120.38677,-128.137 l 5.16682,3.6168 c 0,0 37.20106,31.0009 39.26779,29.9675 2.06672,-1.0334 10.33363,-14.9838 17.05048,-20.1506 6.71686,-5.1668 14.98377,-10.8503 24.80071,-3.6167 9.81695,7.2335 13.9504,18.0838 69.23531,51.6681 l 55.28491,33.5843 c 0,0 80.08562,51.6681 145.187484,67.1686 65.101859,15.5004 152.937701,29.4508 249.557126,18.0838 96.61943,-11.367 142.08739,-16.0171 198.92235,-26.3507 56.83495,-10.3337 138.9873,-26.3508 177.22173,-28.4175 38.23442,-2.0667 39.26778,-2.0667 39.26778,-2.0667 0,0 -4.65013,-24.8007 18.08385,108.5031 22.73399,133.3038 22.73399,183.9386 33.5843,210.806 10.85031,26.8674 11.36699,26.8674 11.36699,26.8674 0,0 21.18394,46.5014 25.31739,102.8196 4.13345,56.3183 2.06672,133.3038 13.9504,148.2876 11.88367,14.9838 15.50044,22.2173 32.03424,30.4842 16.53381,8.2669 17.56717,12.917 22.2173,20.1506 4.65014,7.2335 16.53381,73.3687 16.53381,73.3687 0,0 1.55004,5.1669 9.81695,7.2336 8.2669,2.0667 45.46796,5.1668 53.21818,5.1668 7.75022,0 27.38412,-1.5501 27.38412,-1.5501 0,0 -4.13345,19.6339 0.51668,22.2173 4.65013,2.5835 55.28491,11.367 83.70239,8.267 28.41748,-3.1001 27.9008,-3.1001 27.9008,-3.1001 0,0 -12.91704,-27.3842 -21.70062,-57.8684 -8.78359,-30.4842 -12.40036,-47.5346 -25.31739,-55.2849 -12.91704,-7.7502 -39.26779,-10.3336 -52.18483,-40.3011 -12.91703,-29.9675 -41.85119,-97.6528 -45.46796,-170.5049 -3.61677,-72.8521 -2.06673,-104.3696 -3.61677,-127.6203 -1.55005,-23.2507 2.06672,-30.4842 -7.75022,-81.6357 -9.81695,-51.1514 -19.6339,-101.7862 -22.2173,-151.3876 -2.58341,-49.6014 -6.68978,-91.7123 -6.20018,-141.054 0.15147,-15.2654 0,-20.1506 18.60053,-41.8512 1.55004,-1.0334 47.53469,-67.6853 64.0685,-103.3363 16.5338,-35.651 34.10097,-75.4355 68.71863,-101.7863 34.61765,-26.3507 92.48601,-59.935 134.33721,-73.3687 41.8512,-13.4337 75.4354,-23.2507 103.8529,-16.5338 28.4175,6.7168 41.8512,9.3002 62.5185,45.4679 20.6672,36.1677 68.2019,63.5518 81.119,68.7187 12.917,5.1668 53.7348,20.1505 68.2019,25.3173 14.4671,5.1669 54.7682,14.9838 68.202,18.0839 13.4337,3.1001 16.5338,5.1668 22.7339,5.1668 6.2002,0 13.9504,-5.1668 13.9504,-5.1668 0,0 4.6502,7.7502 13.9504,15.5004 9.3003,7.7503 63.0352,31.0009 71.8187,30.4842 8.7836,-0.5166 23.7674,-13.9504 23.2507,-21.1839 -0.5167,-7.2335 3.6168,-4.6501 -12.4003,-16.0171 -16.0172,-11.367 -36.1677,-29.4509 -37.7178,-42.3679 -1.55,-12.917 4.6501,-33.0676 5.6835,-35.1343 1.0334,-2.0668 -3.1001,-10.3337 2.0667,-1.5501 5.1669,8.7836 20.1506,33.0676 27.9008,39.7845 7.7503,6.7169 27.3841,27.3841 36.6844,27.3841 9.3003,0 24.8007,-12.4003 24.8007,-22.734 0,-10.3336 2.0667,-28.4175 2.5834,-38.2344 0.5167,-9.8169 2.0668,-5.1668 1.5501,-24.8007 -0.5167,-19.6339 -9.817,-42.8846 -20.6673,-55.2849 -10.8503,-12.4004 -72.8521,-83.7024 -82.669,-113.6699 -9.817,-29.96755 -23.7674,-50.11813 -21.184,-66.65194 2.5834,-16.5338 12.4004,-16.01712 -7.2335,-44.95128 -29.2156,-43.0545 -48.0514,-70.26867 -64.0685,-87.83584 -16.0171,-17.56717 -34.6176,-34.10097 -46.5013,-42.88456 -11.8837,-8.78358 -25.8341,-12.40035 -25.3174,-18.08385 0.5167,-5.68349 112.6365,-141.57071 141.054,-177.22172 28.4175,-35.65102 57.8683,-84.21908 61.4851,-91.45262 3.6168,-7.23354 6.7169,-16.5338 1.4109,-26.85132 z"
         id="path4171"
         inkscape:connector-curvature="0"
         sodipodi:nodetypes="cscsscsssssssssssccsssssssssscsssssssssscsccssssssccsssscsssscsscsssscssccscsssssssscssssssssscscssscsssssssssssssssc" />
      <path
         style="fill:none;fill-rule:evenodd;stroke:#ffffff;stroke-width:2.5;stroke-linecap:butt;stroke-linejoin:miter;stroke-miterlimit:4;stroke-dasharray:none;stroke-opacity:1"
         d="m -368.91053,1331.8869 c -19.11722,4.6501 -75.43549,50.1181 -75.43549,50.1181"
         id="path4173"
         inkscape:connector-curvature="0" />
      <path
         style="fill:none;fill-rule:evenodd;stroke:#ffffff;stroke-width:2.5;stroke-linecap:butt;stroke-linejoin:miter;stroke-miterlimit:4;stroke-dasharray:none;stroke-opacity:1"
         d="m -722.32063,1490.5081 c -10.33363,11.8836 -79.05226,106.4363 -95.58606,124.0035 -16.53381,17.5672 -49.60142,44.4346 -51.66814,47.018 -2.06673,2.5834 -12.40036,36.6844 -16.01713,55.8016 -3.61677,19.1172 -20.22933,109.8974 -26.35075,137.9539 -6.20017,28.4175 -13.9504,52.1849 -17.56717,65.1019"
         id="path4175"
         inkscape:connector-curvature="0"
         sodipodi:nodetypes="cssssc" />
      <path
         style="fill:none;fill-rule:evenodd;stroke:#ffffff;stroke-width:2.5999999;stroke-linecap:butt;stroke-linejoin:miter;stroke-miterlimit:4;stroke-dasharray:none;stroke-opacity:1;filter:url(#filter4165)"
         d="m 623.63448,1497.2249 c 0,4.1335 63.03513,321.3759 76.98553,361.1603 13.9504,39.7845 35.13433,100.7529 42.36787,145.7042 7.23354,44.9513 19.6339,128.137 23.25067,139.504 3.61677,11.367 5.16681,20.1505 21.18394,23.7673 16.01712,3.6168 27.38411,1.5501 32.55093,6.2002 5.16681,4.6501 15.50044,38.7511 17.05048,44.9513 1.55005,6.2002 3.10009,19.6339 3.10009,19.6339"
         id="path4177"
         inkscape:connector-curvature="0" />
    </g>
  </g>
</svg>
